<?xml version="1.0" encoding="UTF-8"?>
<!DOCTYPE svg PUBLIC "-//W3C//DTD SVG 1.1//EN" "http://www.w3.org/Graphics/SVG/1.1/DTD/svg11.dtd">
<!-- Creator: CorelDRAW -->
<svg xmlns="http://www.w3.org/2000/svg" xml:space="preserve" width="3.21331in" height="1.16041in" version="1.1" style="shape-rendering:geometricPrecision; text-rendering:geometricPrecision; image-rendering:optimizeQuality; fill-rule:evenodd; clip-rule:evenodd"
viewBox="0 0 377.47 136.31"
 xmlns:xlink="http://www.w3.org/1999/xlink"
 xmlns:xodm="http://www.corel.com/coreldraw/odm/2003">
 <defs>
  <style type="text/css">
   <![CDATA[
    .fil1 {fill:#FEFEFE;fill-rule:nonzero}
    .fil0 {fill:#DF3343;fill-rule:nonzero}
    .fil2 {fill:black;fill-rule:nonzero}
   ]]>
  </style>
 </defs>
 <g id="Слой_x0020_1">
  <metadata id="CorelCorpID_0Corel-Layer"/>
  <path class="fil0" d="M71.2 73.79l0 61.81c0,0.6 0.73,0.9 1.15,0.48l61.56 -61.56c0.42,-0.42 0.13,-1.15 -0.47,-1.15l-61.56 -0.25c-0.37,-0 -0.68,0.3 -0.68,0.67z"/>
  <path class="fil0" d="M62.91 73.83l0 61.81c0,0.6 -0.73,0.9 -1.15,0.48l-61.56 -61.56c-0.42,-0.42 -0.13,-1.15 0.47,-1.15l61.56 -0.25c0.37,-0 0.68,0.3 0.68,0.67z"/>
  <path class="fil0" d="M62.93 63.31l0 -61.81c0,-0.6 -0.73,-0.9 -1.15,-0.48l-61.56 61.56c-0.42,0.42 -0.13,1.15 0.47,1.15l61.56 0.25c0.37,0 0.68,-0.3 0.68,-0.67z"/>
  <path class="fil0" d="M230.32 0l-15.56 0c-0.47,0 -0.8,0.47 -0.63,0.91l15.5 41.21c0.26,0.7 1.3,0.51 1.31,-0.24l0.06 -41.21c0,-0.37 -0.3,-0.68 -0.67,-0.68z"/>
  <path class="fil1" d="M55.19 101.77c-0.25,-0.15 -0.41,-0.42 -0.42,-0.71 -0.01,-0.33 0.01,-0.84 0.07,-1.59 0.12,-1.5 -1.12,-3.97 -1.75,-5.65 -0.63,-1.67 -1.99,-6.23 -2.59,-7.56 -0.61,-1.33 -1.17,-1.89 -1.67,-2.09 -0.69,-0.27 -1.79,0.27 -1.77,1.12 0.02,0.86 1.06,3.1 1.24,3.51 -0.51,-1.05 -2.64,-5.22 -3.49,-6.42 -0.25,-0.35 -1.88,-1.15 -2.28,0.05 -0.56,1.7 2.78,6.51 2.76,6.54 -0.31,0.56 -3.64,-6 -4.08,-6.47 -0.14,-0.15 -0.28,-0.27 -0.39,-0.32 -1.12,-0.51 -1.73,0.51 -1.66,1.33 0.02,0.21 0.11,0.53 0.23,0.91 0.12,0.38 1.67,3.39 1.39,3.6 -0.18,0.13 -1.47,-1.67 -2.3,-2.34 -0.15,-0.12 -0.45,-0.13 -0.65,-0.04 -1.24,0.52 -0.68,2.04 -0.53,2.71 0.15,0.68 2.65,4.65 2.65,4.65 0,0 -1.48,-1.24 -2.03,-1.58 -0.38,-0.23 -1.05,-0.33 -1.43,-0.11 -0.89,0.51 -0.86,1.86 -0.55,2.56 0.39,0.87 4.27,3.83 5.48,4.75 1.21,0.92 3.15,3.83 3.78,4.75 0.42,0.61 1.23,0.86 1.74,0.96 0.12,0.02 0.63,0.45 0.63,0.85l0 0.42c0,0.59 -0.21,0.86 -0.4,1.42 -0.15,0.44 -0.11,0.94 0.14,1.38l1.52 2.42c0.47,0.82 1.52,1.1 2.33,0.62l6.59 -3.88c0.82,-0.47 1.09,-1.52 0.62,-2.33l-1.39 -2.42c-0.27,-0.46 -0.72,-0.75 -1.22,-0.83 -0.13,-0.02 -0.25,-0.05 -0.36,-0.12l-0.21 -0.13z"/>
  <path class="fil1" d="M21.48 54.58c0,0 -1.36,0.19 -1.5,1.84 -0.06,0.64 0.16,1.11 0.44,1.44 0.4,0.46 1,0.7 1.62,0.7l36.19 0c0,0 0.24,-0.63 -1.26,-1.55 -1.5,-0.92 -6.01,-2.18 -6.01,-2.18 0,0 -1.66,-14.25 -15.23,-13.57 -13.57,0.68 -14.25,13.33 -14.25,13.33zm9.52 -9.71c6.72,-2.95 15.26,0.64 16.16,8.34 -0.89,-1.46 -1.82,-2.81 -2.92,-3.95 -3.41,-3.58 -8.45,-4.42 -13.24,-4.39z"/>
  <path class="fil1" d="M76.45 81.05l16.29 0c0,0 -0.87,4.31 -1.26,6.25 -0.39,1.94 -2.52,11.54 8,10.62 0,0 0.97,1.07 0.58,6.01l-10.04 0c0,0 -0.34,-0.86 -1.72,-0.86 -1.63,0 -2.11,0.86 -2.11,0.86l-7.03 0c0,0 -1.75,-4.46 -0.15,-5.77 1.6,-1.31 -1.89,-13.14 -2.57,-17.11z"/>
  <path class="fil2" d="M153.25 63.99l-16.85 0c-1.31,0 -2.37,-1.06 -2.37,-2.37l0 -59.25c0,-1.31 1.06,-2.37 2.37,-2.37l16.85 0c1.31,0 2.37,1.06 2.37,2.37l0 59.25c0,1.31 -1.06,2.37 -2.37,2.37z"/>
  <path class="fil2" d="M191.53 38.86l3.9 -14.07 3.89 14.07 -7.79 0zm15.09 -38.86l-22.38 0c-0.41,0 -0.78,0.27 -0.9,0.66l-19.95 62.09c-0.2,0.61 0.26,1.24 0.9,1.24l19.56 0c0.43,0 0.8,-0.29 0.92,-0.7l2.35 -8.49c0.11,-0.41 0.49,-0.7 0.92,-0.7l14.79 0c0.43,0 0.8,0.29 0.92,0.7l2.35 8.49c0.11,0.41 0.49,0.7 0.92,0.7l19.56 0c0.64,0 1.1,-0.63 0.9,-1.24l-19.94 -62.09c-0.13,-0.39 -0.49,-0.66 -0.9,-0.66z"/>
  <path class="fil2" d="M92.79 29.55l0 -11.12 4.46 0c0.86,0 1.66,0.21 2.36,0.58 1.6,0.84 2.71,2.49 2.74,4.42l0 1.02c0,2.82 -2.29,5.1 -5.11,5.1l-4.46 0zm21.8 13.59c5.18,-4.85 8.3,-11.88 8.45,-19.7 0.26,-13.34 -8.33,-23.44 -22.37,-23.44 -4.27,0 -7.5,-0 -14.84,0l-12.26 0c-1.31,0 -2.37,1.06 -2.37,2.37l0 59.25c0,1.3 1.06,2.37 2.37,2.37l16.85 0c1.3,0 2.37,-1.06 2.37,-2.37l0 -15.92 2.54 4.08 7.29 11.74c0.86,1.88 1.1,2.47 2.46,2.47l18.47 0c1.36,0 2.66,0 2.14,-1.86l-11.09 -18.99z"/>
  <path class="fil2" d="M151.07 89.12l-5.94 0 0 10.98 5.94 0c4.45,0 6.7,-2.07 6.7,-5.49 0,-3.46 -2.25,-5.49 -6.7,-5.49zm6.84 25.55l-6.07 -8.77 -0.36 0 -6.34 0 0 8.77 -7.29 0 0 -31.49 13.63 0c8.41,0 13.67,4.36 13.67,11.42 0,4.72 -2.38,8.19 -6.48,9.94l7.06 10.12 -7.83 0z"/>
  <polygon class="fil2" points="170.92,83.18 178.21,83.18 178.21,114.66 170.92,114.66 "/>
  <path class="fil2" d="M204.12 102.39l-4.99 -12.06 -4.99 12.06 9.99 0zm2.29 5.53l-14.62 0 -2.79 6.75 -7.47 0 14.03 -31.49 7.2 0 14.08 31.49 -7.65 0 -2.79 -6.75z"/>
  <path class="fil2" d="M230.4 111.56l2.48 -5.49c2.65,1.94 6.61,3.28 10.39,3.28 4.32,0 6.07,-1.44 6.07,-3.37 0,-5.89 -18.31,-1.84 -18.31,-13.54 0,-5.35 4.32,-9.81 13.27,-9.81 3.96,0 8.01,0.94 10.93,2.79l-2.25 5.53c-2.92,-1.66 -5.94,-2.47 -8.73,-2.47 -4.32,0 -5.98,1.62 -5.98,3.6 0,5.8 18.31,1.8 18.31,13.36 0,5.26 -4.36,9.76 -13.36,9.76 -4.99,0 -10.03,-1.48 -12.82,-3.64z"/>
  <path class="fil2" d="M275.48 107.02l0 -2.48 -4.81 0c-3.28,0 -4.32,1.22 -4.32,2.84 0,1.75 1.48,2.92 3.96,2.92 2.34,0 4.36,-1.08 5.17,-3.28zm7.02 -6.16l0 13.81 -6.57 0 0 -3.01c-1.3,2.2 -3.82,3.37 -7.38,3.37 -5.67,0 -9.04,-3.15 -9.04,-7.33 0,-4.27 3.01,-7.24 10.39,-7.24l5.58 0c0,-3.01 -1.8,-4.77 -5.58,-4.77 -2.56,0 -5.22,0.85 -6.97,2.25l-2.52 -4.9c2.65,-1.89 6.57,-2.92 10.44,-2.92 7.38,0 11.65,3.42 11.65,10.75z"/>
  <path class="fil2" d="M296.53 91l6.21 0 0 5.4 -6.03 0 0 18.26 -7.02 0 0 -18.26 -3.73 0 0 -5.4 3.73 0 0 -1.08c0,-5.44 3.33,-9 9.36,-9 1.98,0 4.05,0.4 5.35,1.31l-1.84 5.08c-0.76,-0.54 -1.75,-0.86 -2.83,-0.86 -2.07,0 -3.19,1.12 -3.19,3.51l0 1.04z"/>
  <path class="fil2" d="M311.11 100.45l11.92 0c-0.49,-3.06 -2.79,-5.04 -5.94,-5.04 -3.19,0 -5.49,1.93 -5.98,5.04zm18.4 4.09l-18.31 0c0.68,3.01 3.24,4.86 6.93,4.86 2.56,0 4.41,-0.76 6.07,-2.34l3.73 4.05c-2.25,2.56 -5.62,3.91 -9.99,3.91 -8.37,0 -13.81,-5.26 -13.81,-12.46 0,-7.24 5.53,-12.46 12.91,-12.46 7.11,0 12.6,4.77 12.6,12.55 0,0.54 -0.09,1.3 -0.14,1.89z"/>
  <path class="fil2" d="M349.94 113.49c-1.44,1.04 -3.55,1.53 -5.71,1.53 -5.71,0 -9.04,-2.92 -9.04,-8.68l0 -9.94 -3.73 0 0 -5.4 3.73 0 0 -5.89 7.02 0 0 5.89 6.03 0 0 5.4 -6.03 0 0 9.85c0,2.07 1.12,3.19 3.01,3.19 1.03,0 2.07,-0.31 2.83,-0.9l1.89 4.95z"/>
  <path class="fil2" d="M377.47 90.46l-10.93 25.69c-2.34,5.85 -5.67,7.6 -10.03,7.6 -2.48,0 -5.17,-0.81 -6.75,-2.2l2.56 -4.99c1.08,0.94 2.56,1.53 3.96,1.53 1.94,0 3.01,-0.86 3.96,-3.02l0.09 -0.22 -10.48 -24.38 7.24 0 6.79 16.42 6.84 -16.42 6.75 0z"/>
 </g>
</svg>
